<svg width="30" height="30" viewBox="0 0 30 30" fill="none" xmlns="http://www.w3.org/2000/svg">
<rect width="30" height="30" rx="15" fill="black"/>
<path d="M14.4231 13.6583C14.4231 13.6583 14.4231 16.443 14.4231 16.5394C14.4231 16.7942 14.2238 17.001 13.9759 17.001H13.0066C12.7597 17.001 12.5594 16.7942 12.5594 16.5394C12.5594 16.443 12.5594 13.6583 12.5594 13.6583H10.8911V16.6829C10.8911 17.9192 11.6572 18.5705 12.7898 18.5705H14.1927C15.3254 18.5705 16.0915 17.9192 16.0915 16.6829V13.6583H14.4231Z" fill="#1CE783"/>
<path d="M23.8323 13.6583C23.8323 13.6583 23.8323 16.443 23.8323 16.5394C23.8323 16.7942 23.633 17.001 23.3851 17.001H22.4148C22.1678 17.001 21.9676 16.7942 21.9676 16.5394C21.9676 16.443 21.9676 13.6583 21.9676 13.6583H20.2992V16.6829C20.2992 17.9192 21.0653 18.5705 22.198 18.5705H23.5999C24.7326 18.5705 25.4987 17.9192 25.4987 16.6829V13.6583H23.8323Z" fill="#1CE783"/>
<path d="M7.80069 13.658C7.80069 13.658 6.93153 13.658 6.73125 13.658C6.35597 13.658 6.16736 13.7623 6.16736 13.7623V11.4302H4.5V18.5702H6.16736V15.6891C6.16736 15.4342 6.36764 15.2275 6.61458 15.2275H7.58486C7.83181 15.2275 8.03111 15.4342 8.03111 15.6891V18.5702H9.69944V15.4653C9.69944 14.1607 8.85653 13.658 7.80069 13.658Z" fill="#1CE783"/>
<path d="M19.0308 11.4303H17.3625V18.5703H19.0308V11.4303Z" fill="#1CE783"/>
</svg>
