<svg width="30" height="30" viewBox="0 0 30 30" fill="none" xmlns="http://www.w3.org/2000/svg">
<rect width="30" height="30" rx="15" fill="black"/>
<g clip-path="url(#clip0_3965_6356)">
<path d="M15.0004 5.11865C9.54578 5.11865 5.11914 9.54529 5.11914 14.9999C5.11914 20.4545 9.54578 24.8812 15.0004 24.8812C20.455 24.8812 24.8816 20.4545 24.8816 14.9999C24.8816 9.54529 20.455 5.11865 15.0004 5.11865Z" fill="#1ED760"/>
<path d="M21.3203 14.0078C21.1131 14.0078 20.9856 13.956 20.8063 13.8524C17.9695 12.159 12.8973 11.7526 9.61422 12.669C9.47078 12.7089 9.29148 12.7726 9.10023 12.7726C8.5743 12.7726 8.17188 12.3622 8.17188 11.8323C8.17188 11.2904 8.50656 10.9836 8.86516 10.88C10.2677 10.4696 11.8375 10.2744 13.5468 10.2744C16.4554 10.2744 19.5034 10.88 21.7307 12.1789C22.0415 12.3582 22.2447 12.6053 22.2447 13.0794C22.2447 13.6213 21.8064 14.0078 21.3203 14.0078ZM20.0852 17.0439C19.878 17.0439 19.7385 16.9522 19.5951 16.8765C17.1048 15.4023 13.3914 14.8086 10.0884 15.7051C9.89711 15.7569 9.79352 15.8087 9.61422 15.8087C9.18789 15.8087 8.84125 15.4621 8.84125 15.0357C8.84125 14.6094 9.04844 14.3265 9.45883 14.211C10.5665 13.9002 11.698 13.6691 13.3555 13.6691C15.9414 13.6691 18.4396 14.3106 20.4079 15.482C20.7306 15.6732 20.8581 15.9203 20.8581 16.2669C20.8541 16.6972 20.5195 17.0439 20.0852 17.0439ZM19.0134 19.6576C18.846 19.6576 18.7424 19.6058 18.587 19.5142C16.1008 18.0161 13.2081 17.9523 10.3513 18.538C10.1959 18.5779 9.99273 18.6416 9.87719 18.6416C9.4907 18.6416 9.24766 18.3348 9.24766 18.0121C9.24766 17.6017 9.4907 17.4064 9.78953 17.3427C13.0527 16.6215 16.3877 16.6853 19.2325 18.3866C19.4755 18.542 19.619 18.6814 19.619 19.044C19.619 19.4066 19.3361 19.6576 19.0134 19.6576Z" fill="black"/>
</g>
<defs>
<clipPath id="clip0_3965_6356">
<rect width="19.7625" height="20.4" fill="white" transform="translate(5.11914 4.7998)"/>
</clipPath>
</defs>
</svg>
