<svg width="30" height="30" viewBox="0 0 30 30" fill="none" xmlns="http://www.w3.org/2000/svg">
<rect width="30" height="30" rx="15" fill="white"/>
<path d="M13.6916 15.2117C13.6326 15.1872 13.5359 15.0786 13.6968 14.7764L14.0707 13.995C14.0821 13.9714 14.0548 13.9418 14.0377 13.9619L13.7108 14.2905C13.5561 14.452 13.2938 14.9058 13.2429 14.9897L12.8458 15.6463C12.8753 15.6453 12.9 15.6685 12.9009 15.698C12.9012 15.7077 12.8989 15.7173 12.8941 15.7258L12.5311 16.3355C12.4425 16.4867 12.6017 16.5924 12.6233 16.5576C13.1939 15.6386 13.5257 15.712 13.5257 15.712L13.7162 15.271C13.7262 15.2489 13.7164 15.2228 13.6943 15.2128C13.6935 15.2124 13.6926 15.212 13.6916 15.2117ZM14.9888 7.5332C11.7267 7.5332 9.0823 10.1763 9.0823 13.4368C9.08057 14.699 9.4855 15.9282 10.2371 16.9422C10.4848 16.8353 10.6225 16.6754 10.7209 16.553L11.8206 15.1471C11.8438 15.1175 11.874 15.0942 11.9086 15.0793L12.0741 15.0081L13.8824 12.7156L14.1446 12.5104L14.6834 11.7608C14.6973 11.7414 14.7143 11.7243 14.7337 11.7103L14.9688 11.5395C15.0268 11.4973 15.1053 11.4966 15.164 11.5378L15.4493 11.738C15.6006 11.8441 15.7233 11.9861 15.8064 12.1512L16.9491 14.1573C16.9677 14.1955 16.9994 14.2259 17.0384 14.2429C17.2625 14.3544 17.3994 14.3741 17.6927 14.6925C17.8295 14.841 18.4292 15.5113 19.2696 16.5532C19.3918 16.7203 19.5553 16.8528 19.7441 16.9376C20.4934 15.9244 20.8969 14.697 20.8951 13.4368C20.8951 10.1763 18.2508 7.5332 14.9888 7.5332ZM10.6752 13.7622L10.2922 13.6379L10.0556 13.9633V13.5611L9.67265 13.4368L10.0556 13.3124V12.9101L10.2922 13.2356L10.6752 13.1113L10.4386 13.4368L10.6752 13.7622ZM10.5844 15.0786L10.46 15.4612L10.3356 15.0786H9.9331L10.2587 14.8421L10.1343 14.4595L10.46 14.696L10.7856 14.4595L10.6612 14.8421L10.9869 15.0786H10.5844ZM10.6613 12.0313L10.7857 12.4139L10.46 12.1774L10.1344 12.4139L10.2587 12.0313L9.93312 11.7948H10.3356L10.46 11.4122L10.5844 11.7948H10.9869L10.6613 12.0313ZM11.3076 11.1658L11.0712 10.8403L10.6882 10.9646L10.9248 10.6391L10.6882 10.3136L11.0712 10.438L11.3077 10.1125V10.5148L11.6907 10.6389L11.3077 10.7633V11.1656L11.3076 11.1658ZM12.3142 9.75731L12.1898 10.1399L12.0655 9.75733H11.6629L11.9886 9.52084L11.8642 9.13821L12.1898 9.37465L12.5155 9.13816L12.3911 9.5211L12.7167 9.7576H12.3142L12.3142 9.75731ZM13.5827 9.11128L13.3461 9.43679V9.03457L12.9631 8.91025L13.3461 8.78588V8.38357L13.5827 8.70908L13.9655 8.58476L13.7289 8.91025L13.9655 9.23572L13.5827 9.11128ZM15.1901 8.74249L15.3145 9.1251L14.9888 8.8886L14.6631 9.1251L14.7874 8.74266L14.4618 8.50616H14.8643L14.9887 8.12356L15.1131 8.50616H15.5156L15.1901 8.74249ZM16.6313 9.03457V9.43689L16.3948 9.11137L16.0119 9.23572L16.2485 8.91025L16.0119 8.58476L16.3949 8.70908L16.6314 8.38357V8.78588L17.0144 8.91025L16.6313 9.03457ZM19.3023 13.1113L19.6852 13.2356L19.9217 12.9101V13.3124L20.3047 13.4368L19.9217 13.5611V13.9634L19.6852 13.6379L19.3023 13.7623L19.5391 13.4368L19.3023 13.1113ZM17.7877 10.14L17.6632 9.75741H17.2608L17.5863 9.52091L17.4622 9.13825L17.7877 9.37475L18.1132 9.1383L17.9891 9.52091L18.3147 9.75741H17.9121L17.7877 10.14ZM18.67 11.1659V10.7636L18.287 10.6392L18.67 10.5151V10.1126L18.9065 10.4381L19.2894 10.3138L19.0529 10.6393L19.2894 10.9647L18.9065 10.8404L18.67 11.1659ZM19.393 11.7949L19.5175 11.4123L19.642 11.7949H20.0445L19.7189 12.0314L19.8434 12.414L19.5176 12.1775L19.192 12.414L19.3165 12.0314L18.9906 11.7949H19.393ZM19.642 15.0786L19.5175 15.4612L19.393 15.0786H18.9905L19.3164 14.8421L19.1919 14.4595L19.5174 14.696L19.8433 14.4595L19.7188 14.8421L20.0443 15.0786H19.642ZM17.1282 16.8486C17.1565 16.8074 17.2026 16.6943 17.1161 16.4847L16.8547 15.7822C16.8193 15.6925 16.8969 15.6381 16.9491 15.6971C16.9491 15.6971 17.443 16.2664 17.5707 16.5041L17.8143 16.9083C18.0239 16.9219 18.6022 16.9376 19.159 16.9376C19.1029 16.882 19.0511 16.8222 19.004 16.7587C18.054 15.5815 17.4515 14.9266 17.4455 14.9201C17.2529 14.7109 17.1639 14.6707 17.0171 14.6038C16.9958 14.5942 16.9728 14.5838 16.949 14.5725V14.7512C16.9505 14.7633 16.9419 14.7742 16.9298 14.7757C16.92 14.7768 16.9106 14.7713 16.9068 14.7623L15.5102 12.3098L15.5063 12.3021C15.448 12.1866 15.3622 12.0872 15.2563 12.0128L15.1201 11.9171L14.4538 13.4536C14.5334 13.4536 14.598 13.5181 14.598 13.5977C14.598 13.6174 14.594 13.6369 14.5862 13.655L13.9705 15.0785H14.5356C14.754 15.0785 14.9704 15.121 15.1725 15.2038L15.3214 15.2648C15.3214 15.2648 14.872 16.189 14.872 16.6757C14.8727 16.7642 14.885 16.8522 14.9087 16.9375H15.9446L15.8967 16.6458C16.303 16.7365 16.7142 16.8042 17.1281 16.8488V16.8486H17.1282ZM9.13498 18.3462C9.13498 17.3954 8.12657 16.9376 6.92853 16.9376C5.64698 16.9376 4.47112 17.5054 4.03953 18.3858C3.92042 18.6203 3.85852 18.8798 3.85886 19.1429C3.85341 19.3704 3.91636 19.5943 4.03953 19.7856C4.22445 20.0586 4.55471 20.2302 5.03918 20.2302C5.6338 20.2302 6.10504 19.9044 6.10504 19.3366C6.10504 19.3366 6.11378 19.1783 5.92886 19.1783C5.77912 19.1783 5.73943 19.2838 5.74387 19.3366C5.766 19.7812 5.50166 20.1378 5.0304 20.1378C4.50206 20.1378 4.28167 19.6888 4.28167 19.2091C4.28167 18.2274 5.02156 17.5758 5.79228 17.2942C6.15244 17.1582 6.53493 17.0909 6.91992 17.096C7.79191 17.096 8.50538 17.4306 8.50538 18.3286C8.50538 19.0768 7.87562 19.7151 7.12243 19.7724L7.15325 19.6712C7.30745 19.1209 7.49681 18.5179 7.80502 18.0733C7.82275 18.0467 7.8535 18.0028 7.88875 17.9588L7.84476 17.906C7.77886 17.946 7.71557 17.99 7.65523 18.038C6.21084 19.1649 6.16696 22.3343 4.24221 22.3343C4.17592 22.3343 4.10975 22.3298 4.04407 22.321C3.64336 22.255 3.43183 21.9865 3.43183 21.6125C3.43183 21.5376 3.4583 21.4363 3.4583 21.3792C3.46135 21.2729 3.37763 21.1842 3.27131 21.1811C3.27047 21.1811 3.26968 21.1811 3.26889 21.1811H3.24693C3.07521 21.1811 3.00472 21.3174 3.0003 21.5112C2.98715 22.0703 3.40101 22.3959 4.03972 22.4576C4.11011 22.462 4.1806 22.4664 4.25548 22.4664C5.75719 22.4664 6.67764 21.3307 7.06965 19.9529C7.26821 19.9296 7.46424 19.8884 7.65533 19.8297C8.35133 19.6358 9.13498 19.1694 9.13498 18.3462ZM23.4397 18.6763H22.911L22.7923 18.9536L22.5852 19.4202H22.3387L22.2635 19.5787H22.5192L22.2107 20.261C21.9908 20.7408 21.6472 21.2119 21.449 21.2119C21.405 21.2119 21.3784 21.1941 21.3784 21.1503C21.3784 21.1064 21.3916 21.0665 21.4401 20.9433C21.5018 20.798 21.6032 20.5867 21.6781 20.4327C21.788 20.2082 21.9642 19.8605 21.9642 19.6888C21.9642 19.5171 21.8543 19.3806 21.6383 19.3806C21.3962 19.3806 21.1759 19.526 20.9731 19.7371L21.1054 19.4202H20.6079L20.2025 20.3446C20.0398 20.6704 19.7093 21.2118 19.5022 21.2118C19.4582 21.2118 19.4405 21.1854 19.4405 21.1414C19.4448 21.1019 19.4552 21.0632 19.4713 21.0269C19.489 20.9873 19.7313 20.4195 19.7313 20.4195L20.1717 19.4114H19.6345L19.2071 20.393C19.0752 20.6968 18.7405 21.2118 18.5245 21.2118C18.4869 21.2155 18.4534 21.188 18.4497 21.1503C18.4497 21.1503 18.4497 21.1503 18.4497 21.1502V21.1325C18.4497 21.0797 18.4894 20.9828 18.5203 20.9124L18.7448 20.4194L19.2072 19.4114H18.6746L18.5685 19.6403C18.4895 19.7943 18.3572 19.9748 18.1459 19.9748C18.0445 19.9748 17.9962 19.9353 17.9742 19.8956C17.9434 19.5566 17.7274 19.3761 17.4104 19.3761C16.97 19.3761 16.6573 19.6358 16.4501 19.9528C16.3145 20.1713 16.2079 20.4066 16.1332 20.6526C15.9438 20.9653 15.7457 21.2074 15.5871 21.2074C15.5474 21.2074 15.521 21.1853 15.521 21.1325C15.521 21.0797 15.5738 20.9609 15.5915 20.9167L15.9394 20.1773C16.0363 19.9485 16.1025 19.7988 16.1025 19.6491C16.1025 19.4906 15.9926 19.376 15.8117 19.376C15.5607 19.376 15.2876 19.5214 15.0718 19.759C15.0791 19.7213 15.082 19.6829 15.0806 19.6445C15.0806 19.4684 14.9926 19.3759 14.8119 19.3759C14.583 19.3759 14.3452 19.5125 14.1294 19.7589L14.2703 19.4154H13.7858L13.3763 20.3401C13.1826 20.7759 12.8699 21.2074 12.6936 21.2074C12.6541 21.2074 12.6276 21.1852 12.6276 21.1325C12.6276 21.0489 12.7201 20.842 12.7553 20.7583L13.297 19.5302C13.3367 19.4378 13.0768 19.3805 12.7465 19.3805C12.4074 19.3805 12.0594 19.5479 11.8041 19.7635C11.6235 19.9131 11.4914 19.988 11.4252 19.988C11.4036 19.9926 11.3823 19.9789 11.3777 19.9573C11.3771 19.9544 11.3768 19.9514 11.3768 19.9484C11.3768 19.8736 11.5574 19.6622 11.5574 19.4994C11.5574 19.4245 11.5178 19.3761 11.4164 19.3761C11.2227 19.3761 10.9936 19.561 10.8263 19.7546L10.9672 19.4156H10.4917L10.0821 20.3401C9.88831 20.7759 9.56681 21.2294 9.39065 21.2294C9.35098 21.2294 9.32467 21.2074 9.32467 21.1545C9.32467 21.0709 9.41275 20.8685 9.46116 20.7627L10.0029 19.5302C10.0425 19.4378 9.78264 19.3805 9.45228 19.3805C8.96342 19.3805 8.48774 19.7107 8.23675 20.0497C7.95934 20.4149 7.77002 20.8023 7.76556 21.1193C7.76124 21.3746 7.89319 21.533 8.1575 21.533C8.45261 21.533 8.6905 21.2998 8.82694 21.1237C8.81885 21.1585 8.81292 21.1938 8.8092 21.2293C8.8092 21.4053 8.87969 21.533 9.09545 21.533C9.28479 21.533 9.53585 21.3745 9.73846 21.1236L9.57531 21.4978H10.0905L10.597 20.3489C10.7648 19.9748 10.9542 19.7812 11.0068 19.7812C11.0189 19.7789 11.0306 19.7868 11.033 19.7989C11.0332 19.8003 11.0334 19.8018 11.0334 19.8032C11.0334 19.8428 10.9542 19.9486 10.9542 20.0453C10.9542 20.142 11.0068 20.2169 11.148 20.2169C11.2579 20.2169 11.3813 20.1641 11.4914 20.0935C11.2316 20.4458 11.0553 20.8156 11.0553 21.1194C11.0509 21.3747 11.1829 21.5331 11.4473 21.5331C11.7247 21.5331 11.9845 21.269 12.1254 21.0929C12.1201 21.1338 12.1172 21.1749 12.1166 21.2161C12.1166 21.3879 12.2136 21.5331 12.4117 21.5331C12.6319 21.5331 12.8081 21.3966 13.0283 21.1282L12.8652 21.4979H13.3936L13.878 20.4018C14.0894 19.9264 14.3756 19.671 14.5165 19.671C14.5517 19.6674 14.5833 19.6929 14.587 19.7282C14.587 19.7283 14.587 19.7283 14.587 19.7284V19.7415C14.5812 19.795 14.5663 19.8471 14.543 19.8955L13.8478 21.5023H14.3895L14.8828 20.3841C15.094 19.9044 15.3276 19.671 15.5037 19.671C15.5565 19.671 15.5786 19.6976 15.5786 19.7546C15.5739 19.8159 15.5575 19.8758 15.5302 19.9309L15.0545 20.9433C15.0107 21.0407 14.9839 21.1449 14.9752 21.2513C14.9752 21.4054 15.0588 21.5421 15.2967 21.5421C15.6052 21.5421 15.8384 21.3088 16.1026 20.9611V21.0359C16.1247 21.3132 16.2788 21.5553 16.6883 21.5553C17.1728 21.5553 17.5649 21.2207 17.8025 20.6882C17.8924 20.501 17.9505 20.3001 17.9745 20.0937C18.0275 20.1206 18.0868 20.1329 18.1461 20.1292C18.2261 20.1301 18.305 20.1104 18.3752 20.0719L18.2915 20.2523C18.1943 20.4548 18.0887 20.6794 18.0053 20.8688C17.9526 20.9808 17.9211 21.1016 17.9128 21.2252C17.9128 21.4144 18.0185 21.551 18.2341 21.551C18.4497 21.551 18.7451 21.3485 18.9564 21.0624H18.961C18.9469 21.1215 18.9394 21.182 18.9387 21.2428C18.9387 21.4013 18.9873 21.551 19.2075 21.551C19.4631 21.551 19.661 21.3661 19.855 21.1327L19.6918 21.5025H20.2248L20.6521 20.5341C20.8943 19.9883 21.1365 19.6582 21.361 19.6582C21.3995 19.6568 21.4325 19.6858 21.4361 19.7242V19.7372C21.4361 19.8297 21.3039 20.0807 21.1851 20.3315C21.0748 20.5604 20.9911 20.7364 20.934 20.873C20.881 20.9881 20.8497 21.1119 20.8415 21.2383C20.8415 21.4055 20.934 21.5332 21.1411 21.5332C21.4493 21.5332 21.762 21.2339 21.9291 21.0093C21.8914 21.117 21.8707 21.2298 21.8677 21.3438C21.8677 21.6521 22.0524 21.8061 22.3123 21.8061C22.485 21.8048 22.6529 21.7494 22.7925 21.6477C22.995 21.5068 23.1581 21.2955 23.2946 21.1018L23.2021 21.0137C23.0744 21.1942 22.9333 21.366 22.7879 21.4716C22.7113 21.5364 22.6151 21.5736 22.5148 21.5773C22.4049 21.5773 22.3343 21.52 22.3343 21.3792C22.3343 21.2385 22.4003 21.049 22.5017 20.7937C22.506 20.7894 22.6514 20.4635 22.7879 20.1511C22.9024 19.8868 23.017 19.6316 23.039 19.5788H23.3868L23.4574 19.4203H23.1138L23.4397 18.6763ZM8.41728 21.2162C8.34245 21.2162 8.2896 21.1898 8.2896 21.093C8.29397 20.8332 8.5097 20.3711 8.77853 20.0012C8.96784 19.7459 9.21444 19.5567 9.47871 19.5567L9.14395 20.3049C8.89291 20.8685 8.61986 21.2162 8.41728 21.2162ZM11.7115 21.2162C11.6367 21.2162 11.5839 21.1898 11.5795 21.093C11.5839 20.8332 11.7997 20.3711 12.0684 20.0012C12.2577 19.7459 12.5044 19.5567 12.7686 19.5567L12.4338 20.3049C12.1784 20.8818 11.9186 21.2162 11.7115 21.2162L11.7115 21.2162ZM17.5601 19.7593C17.5469 20.0453 17.2959 20.7363 17.0008 21.1503C16.8821 21.3175 16.7806 21.3659 16.6927 21.3659C16.5693 21.3659 16.5338 21.2646 16.5515 21.115C16.5778 20.8553 16.7937 20.2478 17.0934 19.8296C17.2299 19.6403 17.3225 19.5611 17.4281 19.5611C17.5338 19.5611 17.5647 19.6492 17.5601 19.7593ZM25.7798 19.4202L26.2649 18.3006H25.6908L25.2057 19.4202H23.9855L23.782 19.8897H25.0025L24.5174 21.0093H25.0915L25.5766 19.8897H26.7968L27 19.4202H25.7798Z" fill="#0064FF"/>
</svg>
