<svg width="30" height="30" viewBox="0 0 30 30" fill="none" xmlns="http://www.w3.org/2000/svg">
<g clip-path="url(#clip0_3965_547)">
<rect width="30" height="30" rx="15" fill="white"/>
<path d="M15 30C23.2843 30 30 23.2843 30 15C30 6.71573 23.2843 0 15 0C6.71573 0 0 6.71573 0 15C0 23.2843 6.71573 30 15 30Z" fill="#FF0000"/>
<path d="M14.9991 7.841C18.9366 7.841 22.1582 11.0455 22.1582 15.0001C22.1582 18.9546 18.9537 22.1592 14.9991 22.1592C11.0446 22.1592 7.84002 18.9546 7.84002 15.0001C7.84002 11.0455 11.0616 7.841 14.9991 7.841ZM14.9991 7.15918C10.6696 7.15918 7.1582 10.6705 7.1582 15.0001C7.1582 19.3296 10.6696 22.841 14.9991 22.841C19.3287 22.841 22.84 19.3296 22.84 15.0001C22.84 10.6705 19.3287 7.15918 14.9991 7.15918Z" fill="white"/>
<path d="M12.2734 18.9205L18.9212 14.8296L12.2734 11.0796V18.9205Z" fill="white"/>
</g>
<defs>
<clipPath id="clip0_3965_547">
<rect width="30" height="30" rx="15" fill="white"/>
</clipPath>
</defs>
</svg>
