<svg width="30" height="30" viewBox="0 0 30 30" fill="none" xmlns="http://www.w3.org/2000/svg">
<rect width="30" height="30" rx="15" fill="#040714"/>
<path d="M19.9622 16.9197C19.63 16.9958 18.7558 17.0396 18.7558 17.0396L18.645 17.3856C18.645 17.3856 19.081 17.3487 19.3993 17.381C19.3993 17.381 19.5031 17.3695 19.5147 17.4987C19.5168 17.5818 19.5137 17.665 19.5054 17.7478C19.5054 17.7478 19.4985 17.8262 19.3878 17.8447C19.2678 17.8654 18.4467 17.8954 18.4467 17.8954L18.3129 18.3452C18.3129 18.3452 18.2644 18.449 18.3751 18.4191C18.4789 18.3914 19.3394 18.2299 19.4524 18.253C19.5723 18.283 19.7061 18.4421 19.6669 18.5898C19.6208 18.7697 18.7627 19.3187 18.239 19.2795C18.239 19.2795 17.9645 19.2979 17.7316 18.9265C17.5147 18.5736 17.8146 17.9023 17.8146 17.9023C17.8146 17.9023 17.6785 17.5886 17.7777 17.4848C17.7777 17.4848 17.8377 17.4318 18.0084 17.4179L18.2183 16.982C18.2183 16.982 17.9784 16.9981 17.8354 16.8228C17.7016 16.6544 17.6924 16.5783 17.7938 16.5322C17.9023 16.4791 18.9011 16.2969 19.5885 16.3199C19.5885 16.3199 19.8284 16.2969 20.0337 16.7121C20.0314 16.7121 20.1329 16.8805 19.9622 16.9197ZM17.3763 18.5944C17.2887 18.802 17.0557 19.0234 16.7674 18.885C16.479 18.7466 16.0269 17.817 16.0269 17.817C16.0269 17.817 15.8539 17.471 15.8216 17.4779C15.8216 17.4779 15.7847 17.411 15.7616 17.7893C15.7386 18.1676 15.7662 18.9035 15.6163 19.0188C15.4733 19.1341 15.3003 19.088 15.2103 18.9519C15.1296 18.8181 15.095 18.4998 15.1388 17.9416C15.1919 17.3833 15.321 16.7882 15.4871 16.6014C15.6532 16.4145 15.787 16.5506 15.8377 16.599C15.8377 16.599 16.0592 16.7997 16.426 17.3903L16.4905 17.4987C16.4905 17.4987 16.8227 18.0569 16.8573 18.0546C16.8573 18.0546 16.885 18.08 16.9081 18.0615C16.9427 18.0523 16.9288 17.8724 16.9288 17.8724C16.9288 17.8724 16.8596 17.2657 16.5574 16.2369C16.5574 16.2369 16.5113 16.1077 16.5436 15.9878C16.5759 15.8678 16.6958 15.9232 16.6958 15.9232C16.6958 15.9232 17.1664 16.1585 17.3925 16.9243C17.6162 17.697 17.464 18.3868 17.3763 18.5944ZM15.065 16.6267C15.0258 16.7052 15.0027 16.8182 14.8043 16.8482C14.8043 16.8482 12.9059 16.9774 12.8159 17.1111C12.8159 17.1111 12.749 17.1896 12.8528 17.2126C12.9566 17.2357 13.3857 17.2911 13.5933 17.3026C13.8147 17.3049 14.5621 17.3118 14.8297 17.6463C14.8297 17.6463 14.9889 17.8055 14.9819 18.1653C14.975 18.5344 14.9104 18.6636 14.7674 18.7974C14.6175 18.9219 13.3303 19.4986 12.4999 18.6128C12.4999 18.6128 12.117 18.1861 12.6314 17.8631C12.6314 17.8631 13.0028 17.6394 13.9462 17.9023C13.9462 17.9023 14.2323 18.0062 14.2184 18.11C14.2023 18.2207 13.9831 18.3383 13.6648 18.3314C13.3557 18.3222 13.1296 18.1745 13.1735 18.1976C13.215 18.2138 12.8413 18.0177 12.726 18.1515C12.6106 18.2737 12.6383 18.3499 12.7513 18.426C13.0397 18.5898 14.1538 18.5321 14.486 18.163C14.486 18.163 14.6175 18.0131 14.4168 17.8908C14.2161 17.7755 13.6417 17.7063 13.418 17.6947C13.2035 17.6832 12.4053 17.697 12.29 17.4848C12.29 17.4848 12.1747 17.3418 12.3015 16.9358C12.4353 16.5114 13.3649 16.3476 13.7663 16.3107C13.7663 16.3107 14.8712 16.2715 15.0742 16.4976C15.0879 16.5402 15.0846 16.5865 15.065 16.6267ZM11.9278 19.1157C11.7941 19.2149 11.5103 19.171 11.4296 19.0603C11.3489 18.9611 11.3212 18.5667 11.3373 17.9485C11.3535 17.3234 11.3673 16.5483 11.5011 16.426C11.6441 16.3015 11.7318 16.4099 11.7871 16.4952C11.8471 16.5783 11.9186 16.6706 11.9348 16.8666C11.9509 17.0627 11.9947 18.0915 11.9947 18.0915C11.9947 18.0915 12.0547 19.0188 11.9278 19.1157ZM12.2162 15.7986C11.8263 15.9278 11.5588 15.884 11.3327 15.7871C11.2335 15.9601 11.1758 16.0131 11.0997 16.0247C10.989 16.0362 10.8898 15.8586 10.8714 15.8009C10.8529 15.7571 10.7999 15.6833 10.8644 15.508C10.643 15.3096 10.6268 15.042 10.6638 14.8621C10.7191 14.6545 11.0928 13.8656 12.23 13.7733C12.23 13.7733 12.7859 13.7318 12.8805 14.0294H12.8967C12.8967 14.0294 13.4364 14.0317 13.4249 14.5115C13.418 14.9936 12.8252 15.5933 12.2162 15.7986ZM11.1551 14.7306C11.0398 14.9151 11.0351 15.0259 11.0882 15.102C11.2197 14.9013 11.4596 14.5853 11.8125 14.3454C11.5403 14.3684 11.3119 14.4861 11.1551 14.7306ZM12.726 14.4215C12.3684 14.4746 11.8148 14.9544 11.5518 15.3465C11.9555 15.4203 12.6683 15.3926 12.9843 14.7491C12.982 14.7491 13.1343 14.35 12.726 14.4215ZM22.4327 18.1376C22.2182 18.5113 21.6161 19.291 20.8134 19.1088C20.5481 19.7523 20.3266 20.4005 20.1998 21.374C20.1998 21.374 20.1721 21.5631 20.0152 21.4962C19.8607 21.4409 19.6023 21.1825 19.5516 20.825C19.4962 20.3544 19.7061 19.5586 20.1329 18.6474C20.0083 18.4444 19.923 18.1538 19.9968 17.7409C19.9968 17.7409 20.1052 16.975 20.8733 16.283C20.8733 16.283 20.9656 16.2023 21.0187 16.2277C21.0786 16.253 21.0509 16.5022 21.0025 16.6221C20.9541 16.7421 20.6104 17.3372 20.6104 17.3372C20.6104 17.3372 20.3958 17.7386 20.4558 18.0546C20.8595 17.4341 21.7776 16.1815 22.3473 16.576C22.5388 16.7121 22.6264 17.0096 22.6264 17.3303C22.6241 17.614 22.5572 17.9139 22.4327 18.1376ZM22.2666 17.155C22.2666 17.155 22.2343 16.9081 21.9944 17.1803C21.7868 17.4087 21.4131 17.8401 21.1109 18.4237C21.4269 18.3891 21.7314 18.2161 21.8237 18.1284C21.9736 17.9946 22.322 17.6348 22.2666 17.155ZM11.0674 17.4687C11.0236 18.0269 10.8091 18.9657 9.28895 19.4294C8.28552 19.7316 7.33746 19.5863 6.82075 19.4548C6.80921 19.6601 6.78615 19.7477 6.75385 19.7823C6.71003 19.8262 6.38247 20.0153 6.20255 19.7477C6.12181 19.6209 6.08029 19.3902 6.05722 19.1849C4.89463 18.6497 4.35947 17.8793 4.33871 17.8447C4.31334 17.8193 4.04806 17.5425 4.31334 17.2034C4.56246 16.8966 5.37674 16.5898 6.11028 16.4653C6.13565 15.8378 6.20947 15.3649 6.29712 15.1481C6.40323 14.8967 6.53702 15.1227 6.65236 15.2934C6.74924 15.4203 6.80691 15.967 6.81152 16.403C7.29132 16.3799 7.57505 16.4145 8.11021 16.5114C8.80684 16.6383 9.2728 16.9935 9.23128 17.3972C9.20129 17.7939 8.83683 17.9577 8.69842 17.9692C8.5531 17.9808 8.32704 17.877 8.32704 17.877C8.17249 17.8032 8.31551 17.7386 8.50235 17.6578C8.70534 17.5586 8.65921 17.4572 8.65921 17.4572C8.58309 17.2357 7.67885 17.0812 6.77923 17.0812C6.77461 17.5771 6.79999 18.4006 6.81152 18.8804C7.44126 19.0004 7.91183 18.9773 7.91183 18.9773C7.91183 18.9773 10.2093 18.9127 10.2785 17.4456C10.3477 15.9785 7.98795 14.5668 6.24176 14.1193C4.49787 13.6626 3.5106 13.9809 3.42525 14.0247C3.33298 14.0709 3.41833 14.0847 3.41833 14.0847C3.50618 14.1007 3.59258 14.1239 3.67668 14.1539C3.84968 14.2093 3.71589 14.2992 3.71589 14.2992C3.41833 14.3938 3.08385 14.3338 3.01926 14.1977C2.95467 14.0616 3.06309 13.9394 3.18765 13.7641C3.31222 13.5795 3.44831 13.5865 3.44831 13.5865C5.6051 12.8391 8.23247 14.1908 8.23247 14.1908C10.6937 15.4388 11.1136 16.9012 11.0674 17.4687ZM4.55785 17.3926C4.31334 17.5125 4.48173 17.6855 4.48173 17.6855C4.94077 18.1792 5.50591 18.4883 6.04338 18.6797C6.10566 17.8285 6.09644 17.5287 6.10336 17.0996C5.26371 17.1573 4.77929 17.2911 4.55785 17.3926ZM27 17.2173V17.5217C27.0001 17.5375 26.9971 17.5532 26.9911 17.5678C26.9851 17.5824 26.9763 17.5957 26.9651 17.6068C26.954 17.618 26.9407 17.6268 26.9261 17.6328C26.9115 17.6388 26.8958 17.6418 26.8801 17.6417H25.4291C25.4291 17.7178 25.4314 17.7847 25.4314 17.847C25.4335 18.2577 25.4127 18.6681 25.3691 19.0765C25.3664 19.1059 25.3528 19.1332 25.3311 19.1532C25.3094 19.1732 25.281 19.1845 25.2515 19.1849H24.9378C24.9221 19.1849 24.9066 19.1816 24.8923 19.1753C24.878 19.1689 24.8652 19.1596 24.8547 19.148C24.8441 19.1362 24.836 19.1223 24.8313 19.1072C24.8265 19.0921 24.8251 19.0761 24.8271 19.0603C24.8712 18.6574 24.8928 18.2523 24.8917 17.847C24.8917 17.7824 24.8917 17.7155 24.8893 17.6417H23.4546C23.4388 17.6418 23.4231 17.6388 23.4085 17.6328C23.3939 17.6268 23.3806 17.618 23.3695 17.6068C23.3583 17.5957 23.3495 17.5824 23.3435 17.5678C23.3375 17.5532 23.3345 17.5375 23.3346 17.5217V17.2173C23.3345 17.2015 23.3375 17.1858 23.3435 17.1712C23.3495 17.1566 23.3583 17.1433 23.3695 17.1322C23.3806 17.121 23.3939 17.1122 23.4085 17.1062C23.4231 17.1002 23.4388 17.0972 23.4546 17.0973H24.8686C24.84 16.6076 24.7776 16.1205 24.6817 15.6394C24.6792 15.6249 24.6798 15.61 24.6834 15.5957C24.6869 15.5814 24.6935 15.568 24.7025 15.5564C24.7116 15.5449 24.7232 15.5356 24.7363 15.5293C24.7495 15.5229 24.764 15.5195 24.7786 15.5195H25.1177C25.1434 15.5196 25.1683 15.5287 25.188 15.5451C25.2078 15.5615 25.2213 15.5842 25.2261 15.6095C25.3194 16.101 25.381 16.5979 25.4107 17.0973H26.8801C26.9117 17.0978 26.9419 17.1106 26.9643 17.133C26.9867 17.1554 26.9995 17.1856 27 17.2173Z" fill="white"/>
<path d="M25.0254 14.8021C23.6129 11.328 20.3956 8.91921 16.6643 8.54217C12.933 8.16511 9.29884 9.88153 7.21981 13.0029C7.20968 13.0179 7.20316 13.0351 7.20076 13.0531C7.19836 13.0711 7.20014 13.0895 7.20597 13.1067C7.2114 13.124 7.22095 13.1398 7.23381 13.1526C7.24666 13.1655 7.26244 13.175 7.27979 13.1805L7.54275 13.2704C7.55775 13.2748 7.57327 13.2772 7.58889 13.2774C7.61292 13.277 7.63653 13.271 7.65779 13.2598C7.67904 13.2485 7.69732 13.2324 7.71115 13.2128C9.49532 10.5835 12.4665 9.00938 15.644 9.00991C19.4985 9.01058 22.9787 11.3171 24.4811 14.8667C24.4915 14.8918 24.5091 14.9133 24.5316 14.9285C24.5542 14.9437 24.5807 14.9519 24.6079 14.952H24.9216C24.9395 14.9522 24.9571 14.9479 24.9729 14.9394C24.9886 14.9309 25.0019 14.9186 25.0116 14.9036C25.0227 14.8895 25.0299 14.8726 25.0323 14.8547C25.0348 14.8369 25.0324 14.8187 25.0254 14.8021ZM24.5433 14.9105C24.5497 14.9152 24.5567 14.9191 24.5641 14.9221C24.5572 14.9174 24.5503 14.9151 24.5433 14.9105Z" fill="url(#paint0_radial_3965_6379)"/>
<defs>
<radialGradient id="paint0_radial_3965_6379" cx="0" cy="0" r="1" gradientUnits="userSpaceOnUse" gradientTransform="translate(12199.6 7823.85) scale(33664.7 33665)">
<stop offset="0.01" stop-color="white"/>
<stop offset="0.03" stop-color="#CBFFFF"/>
<stop offset="0.06" stop-color="#96FFFF"/>
<stop offset="0.08" stop-color="#68FFFF"/>
<stop offset="0.11" stop-color="#43FFFF"/>
<stop offset="0.14" stop-color="#25FFFF"/>
<stop offset="0.16" stop-color="#11FFFF"/>
<stop offset="0.19" stop-color="#04FFFF"/>
<stop offset="0.22" stop-color="#00FFFF"/>
<stop offset="1" stop-color="#0000FF" stop-opacity="0"/>
</radialGradient>
</defs>
</svg>
